<svg width="133" height="40" viewBox="0 0 133 40" fill="none" xmlns="http://www.w3.org/2000/svg">
<path d="M30.0765 3.71482V30.0563L23.6072 30.0563L23.6072 14.2589L17.6675 30.0563H12.4467L6.46928 14.2214V30.0563H1.37719e-06L0 3.71482L7.64206 3.71482L15.095 21.9512L22.4722 3.71482L30.0765 3.71482Z" fill="white"/>
<path d="M55.4062 9.11822L42.165 40H35.2039L40.0464 29.3434L31.4585 9.11821L38.6845 9.11822L43.5648 22.2139L48.4073 9.11821L55.4062 9.11822Z" fill="white"/>
<path d="M72.9378 16.5479C74.4762 16.8731 75.7118 17.636 76.6452 18.8368C77.5779 20.0125 78.045 21.3634 78.045 22.8893C78.045 25.0907 77.263 26.8418 75.699 28.1426C74.1606 29.4184 72.0044 30.0563 69.2299 30.0563H56.8589L56.8589 3.71482L68.8138 3.71482C71.5124 3.71482 73.6181 4.32771 75.1317 5.55347C76.6701 6.77924 77.4393 8.44278 77.4393 10.5441C77.4393 12.0951 77.0234 13.3834 76.1909 14.409C75.384 15.4346 74.2992 16.1476 72.9378 16.5479ZM63.3281 14.3715H67.5653C68.6247 14.3715 69.4318 14.1464 69.9866 13.6961C70.5667 13.2208 70.8567 12.5329 70.8567 11.6323C70.8567 10.7317 70.5667 10.0438 69.9866 9.5685C69.4318 9.09321 68.6247 8.85557 67.5653 8.85557L63.3281 8.85557V14.3715ZM68.095 24.8781C69.1795 24.8781 70.0118 24.6404 70.5919 24.1651C71.1975 23.6648 71.4996 22.9519 71.4996 22.0263C71.4996 21.1007 71.1847 20.3752 70.5541 19.8499C69.9487 19.3246 69.1038 19.0619 68.0193 19.0619H63.3281V24.8781H68.095Z" fill="white"/>
<path d="M84.1639 6.94184C83.0292 6.94184 82.0958 6.61664 81.3643 5.96623C80.6583 5.29081 80.305 4.46529 80.305 3.48969C80.305 2.48906 80.6583 1.66354 81.3643 1.01313C82.0958 0.33771 83.0292 -2.2014e-08 84.1639 0C85.2736 -6.87659e-09 86.1814 0.337711 86.8881 1.01314C87.6189 1.66354 87.985 2.48906 87.985 3.48969C87.985 4.46529 87.6189 5.29081 86.8881 5.96623C86.1814 6.61664 85.2736 6.94184 84.1639 6.94184ZM87.3793 9.11822V30.0563H80.91V9.11822L87.3793 9.11822Z" fill="white"/>
<path d="M106.579 30.0563L97.6506 18.424L97.6506 30.0563H91.1813L91.1813 3.71482L97.6506 3.71482V15.2721L106.503 3.71482L114.108 3.71482L103.817 16.6229L114.486 30.0563H106.579Z" fill="white"/>
<path d="M123.143 8.85557V14.1839L131.807 14.1839V19.1369H123.143V24.9156L132.941 24.9156L132.941 30.0563L116.673 30.0563V3.71482L132.941 3.71482V8.85557L123.143 8.85557Z" fill="white"/>
</svg>
