<svg width="105" height="40" viewBox="0 0 105 40" fill="none" xmlns="http://www.w3.org/2000/svg">
<path d="M8.82909 33.6836L8.82909 11.2203H0L0 6L24.0435 6V11.2203L15.2144 11.2203L15.2144 33.6836H8.82909ZM34.9804 34C32.7206 34 30.7104 33.5254 28.9498 32.5763C27.2155 31.6271 25.836 30.3352 24.8112 28.7006C23.8127 27.0395 23.3134 25.1544 23.3134 23.0452C23.3134 20.9096 23.8127 19.0245 24.8112 17.3898C25.836 15.7288 27.2155 14.4369 28.9498 13.5141C30.7104 12.565 32.7206 12.0904 34.9804 12.0904C37.214 12.0904 39.211 12.565 40.9716 13.5141C42.7321 14.4369 44.1117 15.7157 45.1102 17.3503C46.1087 18.9849 46.608 20.8832 46.608 23.0452C46.608 25.1544 46.1087 27.0395 45.1102 28.7006C44.1117 30.3352 42.7321 31.6271 40.9716 32.5763C39.211 33.5254 37.214 34 34.9804 34ZM34.9804 28.9379C36.0052 28.9379 36.9249 28.7006 37.7395 28.226C38.5541 27.7514 39.1979 27.0791 39.6708 26.209C40.1438 25.3126 40.3803 24.258 40.3803 23.0452C40.3803 21.806 40.1438 20.7514 39.6708 19.8814C39.1979 19.0113 38.5541 18.339 37.7395 17.8644C36.9249 17.3898 36.0052 17.1525 34.9804 17.1525C33.9556 17.1525 33.0359 17.3898 32.2213 17.8644C31.4067 18.339 30.7498 19.0113 30.2505 19.8814C29.7775 20.7514 29.541 21.806 29.541 23.0452C29.541 24.258 29.7775 25.3126 30.2505 26.209C30.7498 27.0791 31.4067 27.7514 32.2213 28.226C33.0359 28.7006 33.9556 28.9379 34.9804 28.9379ZM51.1516 33.6836V6L63.6857 6C66.6813 6 69.3221 6.58004 71.6082 7.74011C73.8943 8.87382 75.681 10.4689 76.9688 12.5254C78.2565 14.5819 78.9001 17.0207 78.9001 19.8418C78.9001 22.6366 78.2565 25.0753 76.9688 27.1582C75.681 29.2147 73.8943 30.823 71.6082 31.9831C69.3221 33.1168 66.6813 33.6836 63.6857 33.6836H51.1516ZM57.5369 28.4237H63.3704C65.21 28.4237 66.7995 28.081 68.1397 27.3955C69.5063 26.6836 70.5569 25.6818 71.2929 24.3898C72.0547 23.0979 72.436 21.5819 72.436 19.8418C72.436 18.0753 72.0547 16.5593 71.2929 15.2938C70.5569 14.0019 69.5063 13.0132 68.1397 12.3277C66.7995 11.6158 65.21 11.2599 63.3704 11.2599H57.5369V28.4237ZM93.3724 34C91.1128 34 89.1026 33.5254 87.3418 32.5763C85.6075 31.6271 84.228 30.3352 83.2032 28.7006C82.2049 27.0395 81.7054 25.1544 81.7054 23.0452C81.7054 20.9096 82.2049 19.0245 83.2032 17.3898C84.228 15.7288 85.6075 14.4369 87.3418 13.5141C89.1026 12.565 91.1128 12.0904 93.3724 12.0904C95.6062 12.0904 97.6028 12.565 99.3636 13.5141C101.124 14.4369 102.504 15.7157 103.502 17.3503C104.501 18.9849 105 20.8832 105 23.0452C105 25.1544 104.501 27.0395 103.502 28.7006C102.504 30.3352 101.124 31.6271 99.3636 32.5763C97.6028 33.5254 95.6062 34 93.3724 34ZM93.3724 28.9379C94.3972 28.9379 95.3167 28.7006 96.1315 28.226C96.9463 27.7514 97.5899 27.0791 98.0629 26.209C98.5358 25.3126 98.7723 24.258 98.7723 23.0452C98.7723 21.806 98.5358 20.7514 98.0629 19.8814C97.5899 19.0113 96.9463 18.339 96.1315 17.8644C95.3167 17.3898 94.3972 17.1525 93.3724 17.1525C92.3476 17.1525 91.4281 17.3898 90.6133 17.8644C89.7985 18.339 89.142 19.0113 88.6425 19.8814C88.1695 20.7514 87.9331 21.806 87.9331 23.0452C87.9331 24.258 88.1695 25.3126 88.6425 26.209C89.142 27.0791 89.7985 27.7514 90.6133 28.226C91.4281 28.7006 92.3476 28.9379 93.3724 28.9379Z" fill="white"/>
</svg>
