<svg width="28" height="28" viewBox="0 0 28 28" fill="none" xmlns="http://www.w3.org/2000/svg">
<path d="M5.79289 20.7929C5.40237 21.1834 5.40237 21.8166 5.79289 22.2071C6.18342 22.5976 6.81658 22.5976 7.20711 22.2071L5.79289 20.7929ZM22.5 6.5C22.5 5.94772 22.0523 5.5 21.5 5.5H12.5C11.9477 5.5 11.5 5.94772 11.5 6.5C11.5 7.05228 11.9477 7.5 12.5 7.5H20.5V15.5C20.5 16.0523 20.9477 16.5 21.5 16.5C22.0523 16.5 22.5 16.0523 22.5 15.5V6.5ZM7.20711 22.2071L22.2071 7.20711L20.7929 5.79289L5.79289 20.7929L7.20711 22.2071Z" fill="#5C5C5C"/>
</svg>
