<svg width="36" height="36" viewBox="0 0 36 36" fill="none" xmlns="http://www.w3.org/2000/svg">
<g opacity="0.3">
<path d="M9.29829 26.688C7.61829 26.688 6.17029 26.328 4.95429 25.608C3.73829 24.872 2.80229 23.856 2.14629 22.56C1.49029 21.248 1.16229 19.744 1.16229 18.048C1.16229 16.32 1.49029 14.808 2.14629 13.512C2.80229 12.2 3.73829 11.176 4.95429 10.44C6.17029 9.68801 7.61829 9.31201 9.29829 9.31201C11.3783 9.31201 13.0743 9.83201 14.3863 10.872C15.7143 11.912 16.5383 13.376 16.8583 15.264H12.9223C12.7303 14.416 12.3223 13.76 11.6983 13.296C11.0743 12.816 10.2663 12.576 9.27429 12.576C8.33029 12.576 7.52229 12.8 6.85029 13.248C6.19429 13.696 5.69029 14.328 5.33829 15.144C5.00229 15.944 4.83429 16.912 4.83429 18.048C4.83429 19.152 5.00229 20.112 5.33829 20.928C5.69029 21.728 6.19429 22.352 6.85029 22.8C7.52229 23.232 8.33029 23.448 9.27429 23.448C10.2663 23.448 11.0663 23.24 11.6743 22.824C12.2983 22.392 12.7143 21.776 12.9223 20.976H16.8583C16.5383 22.752 15.7143 24.152 14.3863 25.176C13.0743 26.184 11.3783 26.688 9.29829 26.688Z" fill="white"/>
<path d="M24.3017 26.4L18.2537 9.60001H22.0937L26.5337 22.752L31.0217 9.60001H34.8377L28.7657 26.4H24.3017Z" fill="white"/>
</g>
</svg>
