<svg width="36" height="36" viewBox="0 0 36 36" fill="none" xmlns="http://www.w3.org/2000/svg">
<g opacity="0.3">
<path d="M5.21274 6.02624C2.83421 6.02624 2.08171 8.10915 2.00278 9.1506V12.1437L9.26467 17.6573V8.20543C6.39675 5.895 6.18626 6.02624 5.21274 6.02624Z" fill="#D7D7D7"/>
<path d="M30.7873 6.00073C33.1658 6.00073 33.9183 8.08364 33.9972 9.12509V12.1437L26.7353 17.6573V8.20618C29.6033 5.89575 29.8137 6.00073 30.7873 6.00073Z" fill="#D7D7D7"/>
<path d="M9.26467 8.20543V17.6573L18 24.2211L26.7353 17.6573V8.20543L18 14.7693L9.26467 8.20543Z" fill="#939393"/>
<path d="M9.26467 17.6573L2.00278 12.1437L2.00278 28.1069C2.00278 28.1069 1.92384 28.7107 2.60793 29.3934C3.29202 30.076 3.89718 29.9972 3.89718 29.9972H9.26467V17.6573Z" fill="#BDBDBD"/>
<path d="M26.7353 17.6573L33.9972 12.1437V28.1069C33.9972 28.1069 34.0762 28.7107 33.3921 29.3934C32.708 30.076 32.1028 29.9972 32.1028 29.9972H26.7353V17.6573Z" fill="#BDBDBD"/>
</g>
</svg>
