<svg width="36" height="36" viewBox="0 0 36 36" fill="none" xmlns="http://www.w3.org/2000/svg">
<g opacity="0.3">
<path d="M24.614 13.2105C20.5088 13.2105 19.1404 15.0351 19.1404 15.0351V13.2105H14.1228V31H19.1404V20.5088C19.1404 19.5965 20.0526 17.7719 22.3333 17.7719C24.614 17.7719 25.5263 19.5965 25.5263 20.5088V31H31V18.2281C31 16.8596 28.7193 13.2105 24.614 13.2105Z" fill="white"/>
<path d="M5 13.2105H10.4737V31H5V13.2105Z" fill="white"/>
<path d="M10.4737 7.73684C10.4737 9.24836 9.24836 10.4737 7.73684 10.4737C6.22533 10.4737 5 9.24836 5 7.73684C5 6.22533 6.22533 5 7.73684 5C9.24836 5 10.4737 6.22533 10.4737 7.73684Z" fill="white"/>
</g>
</svg>
