<svg width="36" height="36" viewBox="0 0 36 36" fill="none" xmlns="http://www.w3.org/2000/svg">
<path opacity="0.3" d="M31.5506 5.09574L3.60406 15.9459C3.60406 15.9459 2.5 16.2915 2.5 17.0517C2.5 17.6046 3.39705 17.881 3.39705 17.881C5.72018 18.6412 10.394 20.1616 10.5045 20.1616C10.6149 20.1616 10.7805 20.0695 10.8495 20.0234C16.1858 16.6831 27.1344 9.79519 27.1344 9.79519C27.1344 9.79519 27.7554 9.31142 28.0314 9.58786C28.3075 9.8643 27.8244 10.3481 27.8244 10.3481L15.5934 21.5018C15.0284 22.0171 14.6814 22.7281 14.6238 23.4907C14.4559 25.7141 14.2307 28.7307 14.2307 28.8694C14.2307 29.0768 14.2997 29.215 14.5067 29.2841C14.6723 29.3394 14.8517 29.1689 14.9207 29.0768L18.6469 25.7595C18.6929 25.6904 18.8401 25.5522 19.0609 25.5522C19.2817 25.5522 19.429 25.6443 19.475 25.6904C21.1771 26.9574 24.7883 29.6435 25.6163 30.2516C26.6514 31.0118 27.3414 31.0809 27.8244 30.9427C28.2109 30.8322 28.4455 30.2977 28.5145 30.0443C30.1016 22.6726 33.3033 7.79101 33.4137 7.23813C33.4137 7.23813 33.7588 6.06326 33.0687 5.37218C32.5167 4.75015 31.5506 5.09574 31.5506 5.09574Z" fill="white"/>
</svg>
